<?xml version="1.0" encoding="utf-8"?>
<!-- Generator: Adobe Illustrator 25.3.1, SVG Export Plug-In . SVG Version: 6.00 Build 0)  -->
<svg version="1.1" id="Layer_1" xmlns="http://www.w3.org/2000/svg" xmlns:xlink="http://www.w3.org/1999/xlink" x="0px" y="0px"
	 viewBox="0 0 1366 768" style="enable-background:new 0 0 1366 768;" xml:space="preserve">
<style type="text/css">
	.st0{fill:#FFFFFF;}
</style>
<g>
	<g>
		<path class="st0" d="M183.47,270.67c-7.14-6.43-16.52-9.64-28.13-9.64c-6.07,0-12.32,1.52-18.75,4.56
			c-6.43,3.04-12.59,7.92-18.49,14.63c-5.89,6.71-11.25,18.66-16.07,35.84c-4.82,17.18-7.23,32.04-7.23,44.56
			c0,11.99,2.81,20.9,8.44,26.71c5.63,5.82,13.8,8.72,24.51,8.72c10.36,0,21.79-4.37,34.29-13.13l12.86,24.65
			c-16.43,11.61-35.1,17.42-55.99,17.42s-37.1-5.68-48.62-17.03C58.76,396.6,53,380.46,53,359.53c0-14.67,2.54-29.96,7.63-45.88
			c5.09-15.92,12.23-30.09,21.43-42.52c9.2-12.43,20.81-22.17,34.83-29.24c14.02-7.06,28.8-10.6,44.34-10.6
			c9.28,0,17.9,1.34,25.85,4.02c7.94,2.68,13.97,6.25,18.08,10.72L183.47,270.67z"/>
		<path class="st0" d="M310.19,328.36c0,26.3-6.92,48.9-20.76,67.78c-13.84,18.88-33.62,28.31-59.34,28.31
			c-15.54,0-27.55-4.16-36.03-12.48c-8.48-8.32-12.73-20.36-12.73-36.1c0-26.48,7.37-48.85,22.1-67.1s33.71-27.38,56.93-27.38
			c15.54,0,27.73,4.07,36.57,12.21C305.77,301.75,310.19,313.34,310.19,328.36z M219.37,379.39c0,6.45,1.47,11.24,4.42,14.38
			c2.95,3.13,7.1,4.7,12.46,4.7c10.54,0,19.06-7.74,25.59-23.24c6.52-15.5,9.78-31.13,9.78-46.89c0-7.52-1.34-12.81-4.02-15.85
			c-2.68-3.04-6.88-4.57-12.59-4.57c-10.72,0-19.34,8.42-25.85,25.26C222.62,350.01,219.37,365.42,219.37,379.39z"/>
		<path class="st0" d="M359.75,279.78c1.25,2.32,2.23,5.72,2.95,10.18c0.71,4.47,0.89,8.49,0.54,12.06
			c6.25-6.79,13.08-11.92,20.5-15.41c7.41-3.48,16.03-5.22,25.85-5.22c8.75,0,15.54,2.41,20.36,7.23
			c4.82,4.82,7.23,11.43,7.23,19.83c0,6.61-0.72,13.04-2.14,19.29l-19.83,93.77h-35.36l18.78-89.21c0.7-3.21,1.18-5.71,1.45-7.5
			c0.26-1.78,0.4-3.39,0.4-4.82c0-5.71-3.11-8.57-9.34-8.57c-4.62,0-9.42,1.61-14.4,4.82c-4.98,3.21-10.14,8.48-15.47,15.81
			l-18.93,89.48h-35.36l19.56-92.43c1.61-7.32,2.41-13.84,2.41-19.56c0-6.25-0.8-11.79-2.41-16.61L359.75,279.78z"/>
		<path class="st0" d="M549.16,406.24c-18.04,12.5-36.61,18.75-55.72,18.75c-16.61,0-29.43-4.23-38.45-12.7
			c-9.02-8.47-13.53-20.99-13.53-37.57c0-13.9,2.81-27.68,8.44-41.31c5.63-13.64,12.41-24.29,20.36-31.96
			c7.94-7.66,15.81-12.92,23.58-15.78c7.77-2.85,16.3-4.28,25.59-4.28c14.47,0,25.85,3.05,34.16,9.14
			c8.3,6.09,12.45,15.59,12.45,28.49c0,13.62-6.07,24.91-18.22,33.87c-12.14,8.96-29.2,13.44-51.17,13.44
			c-4.28,0-7.63-0.2-10.04-0.61c-2.41-0.41-4.51-0.92-6.3-1.53c-0.36,2.13-0.67,4.56-0.93,7.31c-0.27,2.75-0.4,4.39-0.4,4.92
			c0,7.62,1.91,13.16,5.76,16.61c3.84,3.46,9.6,5.18,17.28,5.18c6.07,0,12.24-1.16,18.49-3.48c6.25-2.32,12.76-5.8,19.55-10.45
			L549.16,406.24z M496.38,341.14c8.93,0,16.74-1.58,23.44-4.73c6.7-3.15,10.05-7.96,10.05-14.45c0-4.5-1.12-8.01-3.35-10.53
			c-2.24-2.52-5.95-3.78-11.12-3.78c-7.14,0-13.18,2.48-18.08,7.43c-4.91,4.95-8.62,13.19-11.12,24.71
			c1.42,0.36,3.12,0.68,5.08,0.95C493.25,341,494.95,341.14,496.38,341.14z"/>
		<path class="st0" d="M615.33,280.52c2.68,6.09,5.4,12.97,8.17,20.67c2.77,7.69,4.87,14.49,6.3,20.39
			c3.22-5.18,7.01-10.85,11.39-17.01c4.37-6.16,9.33-12.9,14.87-20.23h43.4l-56.53,66.17l34.29,71h-42.33
			c-2.32-6.79-5.45-15.36-9.38-25.72c-3.93-10.36-6.16-17.06-6.7-20.09c-1.97,3.39-7.1,10.49-15.41,21.3
			c-8.3,10.81-14.78,18.98-19.42,24.51h-47.15l67.25-73.98l-25.72-57.1L615.33,280.52z"/>
		<path class="st0" d="M745.26,280.79l-18.75,88.19c-1.79,8.05-2.68,14.21-2.68,18.5c0,2.86,0.84,5.32,2.55,7.37
			c1.69,2.06,3.7,3.08,6.03,3.08c5,0,10.4-2.15,16.21-6.45c5.8-4.3,10.22-8.96,13.26-13.97l19.02-89.47l36.17-7.26L794.83,385.8
			c-0.54,3.22-0.8,6.63-0.8,10.2c0,3.58,0.27,6.9,0.8,9.94c0.53,3.04,1.52,5.64,2.95,7.79l-31.08,12.32
			c-1.79-2.5-3.31-5.45-4.55-8.84c-1.25-3.39-1.88-6.52-1.88-9.38c-5.72,5.18-11.83,9.34-18.35,12.46
			c-6.52,3.12-13.62,4.69-21.3,4.69c-10.54,0-18.75-2.5-24.65-7.51c-5.89-5-8.84-11.79-8.84-20.37c0-2.68,0.22-5.85,0.67-9.52
			s1.12-7.73,2.01-12.2l18.48-87.91L745.26,280.79z"/>
		<path class="st0" d="M865.02,279.78c1.07,2.32,1.88,5.49,2.41,9.51c0.53,4.02,0.8,8.17,0.8,12.46
			c13.39-13.57,28.04-20.36,43.94-20.36c7.32,0,13.17,1.65,17.55,4.96c4.38,3.31,6.92,8.44,7.63,15.4
			c6.79-6.79,14.02-11.87,21.7-15.27c7.68-3.39,15.18-5.09,22.51-5.09c8.39,0,15.09,2.28,20.09,6.83c5,4.55,7.5,11.75,7.5,21.57
			c0,5.36-0.72,11.34-2.14,17.95l-19.83,93.77h-34.83l19.29-90.55c1.07-5.18,1.61-9.11,1.61-11.79c0-3.03-0.63-5.09-1.88-6.16
			c-1.25-1.07-3.58-1.61-6.97-1.61c-4.65,0-9.51,1.88-14.6,5.63c-5.09,3.75-9.69,8.75-13.8,15l-19.02,89.48h-34.02l19.02-89.21
			c1.24-5.53,1.88-10,1.88-13.39c0-2.85-0.63-4.82-1.88-5.89c-1.25-1.07-3.48-1.61-6.7-1.61c-4.47,0-9.2,1.79-14.2,5.36
			c-5,3.57-9.91,8.66-14.73,15.27l-19.02,89.48h-35.1l20.09-93.77c1.07-5.36,1.61-10.98,1.61-16.88c0-8.04-0.72-14.02-2.14-17.95
			L865.02,279.78z"/>
	</g>
	<g>
		<path class="st0" d="M1286.47,447.17c32.31-57.84,16.38-129.53-34.65-168.73c30.51,31.63,31.96,93.76,0.68,149.75
			c-31.28,55.99-84.96,87.32-127.88,77.92C1184.75,529.02,1254.16,505.01,1286.47,447.17z"/>
		<path class="st0" d="M1090.3,337.57c31.28-55.99,84.95-87.32,127.88-77.92c-60.13-22.91-129.54,1.11-161.85,58.94
			c-32.31,57.83-16.38,129.53,34.65,168.73C1060.47,455.69,1059.02,393.56,1090.3,337.57z"/>
	</g>
	<g>
		<path class="st0" d="M100.64,469.06H78.52l-3.7,17.26l18.06,0.01l-1.85,8.68L72.97,495l-6.16,29.19l-10.77,0.01l13.67-63.82h34.17
			L100.64,469.06z"/>
		<path class="st0" d="M148.86,511.08c-0.37,1.85-0.56,3.45-0.56,4.8c0,2.16,0.55,4.03,1.66,5.64l-8.5,4.41
			c-1.85-2.15-2.77-4.82-2.77-8.01c-2.28,2.46-4.71,4.36-7.3,5.68c-2.59,1.32-5.27,1.99-8.04,1.99c-3.39,0-6.02-0.82-7.9-2.45
			c-1.88-1.63-2.82-3.99-2.82-7.07c0-2.03,0.28-4.4,0.83-7.11l6.46-30.66l10.4-1.88l-6.45,30.6c-0.6,2.65-0.9,4.71-0.9,6.19
			c0,2.96,1.24,4.44,3.71,4.44c2.04,0,4.29-0.86,6.76-2.58c2.47-1.72,4.51-3.91,6.12-6.55l6.4-30.03l10.26-2.05L148.86,511.08z"/>
		<path class="st0" d="M211.02,498.54c-1.91,1.9-4.53,3.36-7.85,4.38c-3.33,1.01-7.33,1.52-12.01,1.52c-1.05,0-2.22-0.06-3.51-0.18
			c-1.29-0.12-2-0.18-2.12-0.18c-0.12,0.86-0.25,1.85-0.37,2.95c-0.12,1.11-0.18,1.76-0.18,1.94c0,2.83,0.75,4.97,2.26,6.42
			c1.51,1.45,3.59,2.17,6.24,2.17c4.49,0,8.9-1.69,13.21-5.08l3.14,6.28c-2.83,2.28-5.76,3.96-8.77,5.03
			c-3.02,1.08-6.43,1.62-10.25,1.62c-5.05,0-9.08-1.47-12.1-4.42c-3.02-2.95-4.53-7.16-4.53-12.63c0-4.73,0.94-9.39,2.82-13.97
			c1.88-4.58,4.72-8.71,8.54-12.4c3.82-3.69,8.77-5.53,14.87-5.53c4.68,0,8.31,1.04,10.9,3.13c2.59,2.09,3.88,5.19,3.88,9.3
			C215.18,492.68,213.79,495.9,211.02,498.54z M199.11,484.02c-2.77,0-5.2,1.06-7.3,3.17c-2.09,2.11-3.63,5.33-4.62,9.67l4.06,0.28
			c2.96,0,5.37-0.23,7.25-0.69c1.88-0.46,3.42-1.29,4.62-2.48c1.2-1.19,1.8-2.68,1.8-4.45c0-1.71-0.46-3.06-1.39-4.04
			C202.62,484.51,201.14,484.02,199.11,484.02z"/>
		<path class="st0" d="M253.99,471.28l-8.04,37.68c-0.38,1.54-0.66,2.92-0.85,4.15c-0.19,1.23-0.28,2.03-0.28,2.4
			c0,1.66,0.74,2.49,2.22,2.49c0.74,0,1.26-0.06,1.57-0.19l0.55,6.19c-2.03,0.8-4.31,1.2-6.84,1.2c-2.65,0-4.66-0.63-6.05-1.89
			c-1.39-1.26-2.08-3.03-2.08-5.31c0-1.48,0.31-3.66,0.92-6.56l8.22-38.51c0.86-4.12,1.29-7.42,1.29-9.88
			c0-1.48-0.19-2.77-0.56-3.88l10.71-3.51c0.31,1.23,0.46,2.8,0.46,4.71C255.26,463.89,254.84,467.52,253.99,471.28z"/>
		<path class="st0" d="M281.86,524.2l-10.38-0.01l9.83-46.17l10.62-1.57L281.86,524.2z M289.53,470.72c-1.85,0-3.43-0.66-4.76-1.99
			s-1.99-2.91-1.99-4.76c0-1.91,0.66-3.52,1.99-4.85c1.32-1.32,2.94-1.99,4.85-1.99c1.85,0,3.42,0.65,4.71,1.94
			c1.29,1.29,1.94,2.9,1.94,4.8c0,1.85-0.65,3.45-1.94,4.8C293.04,470.04,291.43,470.72,289.53,470.72z"/>
		<path class="st0" d="M351.78,490.76l-7.11,33.43l-10.01,0.01l6.49-30.96c0.44-1.89,0.66-3.38,0.66-4.47
			c0-2.43-1.22-3.65-3.65-3.65c-1.77,0-3.74,0.69-5.94,2.07c-2.19,1.38-4.45,3.56-6.76,6.56l-6.61,30.45l-10.02-0.01l7.02-32.33
			c0.49-2.82,0.74-5.25,0.74-7.27c0-1.47-0.25-3.04-0.74-4.7l9.42-3.94c0.74,1.67,1.11,3.64,1.11,5.93c0,0.99-0.09,1.94-0.28,2.87
			c4.55-5.54,10.16-8.31,16.81-8.31c2.89,0,5.17,0.83,6.84,2.49s2.49,3.91,2.49,6.74c0,0.8-0.03,1.66-0.09,2.59
			C352.08,489.19,351.96,490.02,351.78,490.76z"/>
		<path class="st0" d="M415.8,487.72l-4.94,22.8c-0.43,2.09-0.97,4.91-1.61,8.45s-1.4,7.21-2.26,10.99
			c-0.86,3.79-3.41,7.03-7.65,9.75c-4.24,2.71-9.59,4.06-16.06,4.06c-5.97,0-11.42-1.38-16.35-4.16l3.51-7.2
			c3.88,2.34,8.44,3.51,13.67,3.51c3.94,0,6.96-0.74,9.05-2.22c2.09-1.48,3.6-3.91,4.53-7.3l1.66-6.83
			c-3.39,3.76-7.67,5.63-12.84,5.63c-9.18,0-13.76-5.29-13.76-15.89c0-4.92,0.94-9.8,2.82-14.64c1.88-4.83,4.22-8.51,7.02-11.04
			c2.8-2.52,5.67-4.39,8.59-5.59c2.92-1.2,6.08-1.8,9.47-1.8c3.7,0,6.85,0.28,9.47,0.83c2.62,0.56,5.22,1.48,7.81,2.77
			c-0.25,0.8-0.65,2.23-1.2,4.3C416.17,486.22,415.86,487.41,415.8,487.72z M399.81,484.57c-1.66,0-3.39,0.39-5.17,1.16
			c-1.79,0.77-3.45,2.03-4.99,3.79c-1.54,1.76-2.96,4.65-4.25,8.68c-1.29,4.03-1.94,7.65-1.94,10.85c0,5.42,2.03,8.13,6.1,8.13
			c2.09,0,4.17-0.75,6.24-2.26c2.06-1.51,3.83-3.52,5.31-6.05l4.99-23C404.73,485.01,402.64,484.57,399.81,484.57z"/>
		<path class="st0" d="M497.24,460.01l-13.67,64.19h-13.39l13.67-64.19H497.24z"/>
		<path class="st0" d="M529.02,475.34c0.43,0.8,0.77,1.97,1.02,3.51c0.25,1.54,0.31,2.92,0.19,4.16c2.15-2.34,4.51-4.11,7.07-5.31
			c2.55-1.2,5.53-1.8,8.91-1.8c3.02,0,5.36,0.83,7.02,2.49s2.49,3.94,2.49,6.84c0,2.28-0.25,4.49-0.74,6.65l-6.83,32.33h-12.19
			l6.47-30.76c0.24-1.11,0.41-1.97,0.5-2.59c0.09-0.62,0.14-1.17,0.14-1.66c0-1.97-1.07-2.96-3.22-2.96c-1.59,0-3.25,0.55-4.96,1.66
			c-1.72,1.11-3.49,2.92-5.33,5.45l-6.53,30.85h-12.19l6.74-31.86c0.55-2.52,0.83-4.77,0.83-6.74c0-2.15-0.28-4.06-0.83-5.73
			L529.02,475.34z"/>
		<path class="st0" d="M592.01,475.34c0.43,0.8,0.77,1.97,1.02,3.51c0.25,1.54,0.31,2.92,0.18,4.16c2.15-2.34,4.51-4.11,7.07-5.31
			c2.55-1.2,5.53-1.8,8.91-1.8c3.02,0,5.36,0.83,7.02,2.49c1.66,1.66,2.5,3.94,2.5,6.84c0,2.28-0.25,4.49-0.74,6.65l-6.84,32.33
			h-12.19l6.47-30.76c0.24-1.11,0.41-1.97,0.5-2.59c0.09-0.62,0.14-1.17,0.14-1.66c0-1.97-1.07-2.96-3.22-2.96
			c-1.59,0-3.25,0.55-4.96,1.66c-1.72,1.11-3.49,2.92-5.33,5.45L586,524.2h-12.19l6.74-31.86c0.55-2.52,0.83-4.77,0.83-6.74
			c0-2.15-0.28-4.06-0.83-5.73L592.01,475.34z"/>
		<path class="st0" d="M681.97,492.09c0,9.07-2.39,16.86-7.16,23.37c-4.77,6.51-11.59,9.76-20.46,9.76c-5.36,0-9.5-1.43-12.42-4.3
			c-2.93-2.87-4.39-7.02-4.39-12.45c0-9.13,2.54-16.84,7.62-23.13s11.62-9.44,19.63-9.44c5.36,0,9.56,1.4,12.61,4.21
			C680.44,482.91,681.97,486.91,681.97,492.09z M650.66,509.68c0,2.22,0.51,3.87,1.52,4.96c1.02,1.08,2.45,1.62,4.3,1.62
			c3.63,0,6.57-2.67,8.82-8.01c2.25-5.34,3.37-10.73,3.37-16.17c0-2.59-0.46-4.41-1.39-5.46c-0.92-1.05-2.37-1.58-4.34-1.58
			c-3.7,0-6.66,2.9-8.91,8.71C651.78,499.55,650.66,504.86,650.66,509.68z"/>
		<path class="st0" d="M713.46,476.05l2.31,21.35c0.12,1.3,0.25,3.16,0.37,5.59c0.12,2.43,0.18,4.36,0.18,5.78
			c0.67-1.91,1.43-3.76,2.26-5.54c0.83-1.78,1.89-3.94,3.18-6.47l10.62-19.86h13.21l-27.34,47.29h-10.25l-7.3-46.57L713.46,476.05z"
			/>
		<path class="st0" d="M796.03,490.85l-3.78,18.04c-0.31,1.43-0.46,2.64-0.46,3.63c0,2.17,0.74,4.06,2.22,5.67l-10.25,7.48
			c-0.99-0.68-1.77-1.54-2.36-2.59c-0.59-1.05-1-2.12-1.24-3.23c-1.72,1.91-3.62,3.36-5.68,4.34c-2.06,0.98-4.36,1.48-6.88,1.48
			c-8.68,0-13.02-5.05-13.02-15.14c0-5.51,0.92-10.68,2.77-15.51c1.84-4.83,4.74-9.23,8.68-13.19c3.94-3.96,9.73-5.94,17.37-5.94
			c2.96,0,5.83,0.26,8.64,0.79c2.8,0.52,5.16,1.34,7.07,2.45c-0.37,0.99-0.91,2.9-1.62,5.72
			C796.75,487.67,796.27,489.67,796.03,490.85z M781.71,485.5c-1.85,0-3.37,0.23-4.57,0.7c-1.2,0.47-2.63,1.69-4.3,3.68
			c-1.66,1.99-3.02,4.97-4.06,8.95c-1.05,3.98-1.57,7.7-1.57,11.18c0,4.1,1.26,6.15,3.78,6.15c1.85,0,3.66-0.78,5.45-2.33
			c1.78-1.55,3.02-3.26,3.7-5.13l4.89-22.46c-0.18-0.12-0.58-0.28-1.2-0.47C783.22,485.59,782.51,485.5,781.71,485.5z"/>
		<path class="st0" d="M843.13,485.41h-8.22l-4.99,23.81c-0.18,0.68-0.31,1.36-0.37,2.04c-0.06,0.68-0.09,1.39-0.09,2.13
			c0,2.29,1.39,3.43,4.16,3.43c1.54,0,3.08-0.34,4.62-1.02v7.48c-1.6,0.64-3.39,1.16-5.36,1.55c-1.97,0.39-3.7,0.58-5.17,0.58
			c-3.45,0-6.17-0.76-8.17-2.27c-2-1.51-3-3.47-3-5.88c0-1.97,0.21-4.01,0.65-6.11l5.45-25.74h-4.71l1.84-8.5h4.71
			c0.31-1.54,0.68-3.28,1.11-5.23c0.43-1.94,1.02-3.93,1.76-5.97l13.02-3.14c-1.48,4.69-2.74,9.47-3.79,14.34h10.99L843.13,485.41z"
			/>
		<path class="st0" d="M881.56,475.8l-10.25,48.4h-12.38l9.88-46.46L881.56,475.8z M885.62,463.98c0,2.16-0.74,3.97-2.22,5.45
			c-1.48,1.48-3.29,2.22-5.45,2.22c-2.09,0-3.88-0.74-5.36-2.22c-1.48-1.48-2.22-3.29-2.22-5.45c0-2.15,0.74-3.97,2.22-5.45
			c1.48-1.48,3.32-2.22,5.54-2.22c2.09,0,3.86,0.75,5.31,2.26C884.9,460.08,885.62,461.88,885.62,463.98z"/>
		<path class="st0" d="M942.33,492.09c0,9.07-2.39,16.86-7.16,23.37c-4.77,6.51-11.59,9.76-20.46,9.76c-5.36,0-9.5-1.43-12.42-4.3
			c-2.93-2.87-4.39-7.02-4.39-12.45c0-9.13,2.54-16.84,7.62-23.13s11.62-9.44,19.63-9.44c5.36,0,9.56,1.4,12.61,4.21
			C940.8,482.91,942.33,486.91,942.33,492.09z M911.02,509.68c0,2.22,0.51,3.87,1.52,4.96c1.02,1.08,2.45,1.62,4.3,1.62
			c3.63,0,6.57-2.67,8.82-8.01c2.25-5.34,3.37-10.73,3.37-16.17c0-2.59-0.46-4.41-1.39-5.46c-0.92-1.05-2.37-1.58-4.34-1.58
			c-3.7,0-6.66,2.9-8.91,8.71C912.14,499.55,911.02,504.86,911.02,509.68z"/>
		<path class="st0" d="M976.96,475.34c0.43,0.8,0.77,1.97,1.02,3.51c0.25,1.54,0.31,2.92,0.18,4.16c2.15-2.34,4.51-4.11,7.07-5.31
			c2.55-1.2,5.53-1.8,8.91-1.8c3.02,0,5.36,0.83,7.02,2.49c1.66,1.66,2.5,3.94,2.5,6.84c0,2.28-0.25,4.49-0.74,6.65l-6.84,32.33
			h-12.19l6.47-30.76c0.24-1.11,0.41-1.97,0.5-2.59c0.09-0.62,0.14-1.17,0.14-1.66c0-1.97-1.07-2.96-3.22-2.96
			c-1.59,0-3.25,0.55-4.96,1.66c-1.72,1.11-3.49,2.92-5.33,5.45l-6.53,30.85h-12.19l6.74-31.86c0.55-2.52,0.83-4.77,0.83-6.74
			c0-2.15-0.28-4.06-0.83-5.73L976.96,475.34z"/>
	</g>
</g>
</svg>
