<?xml version="1.0" encoding="utf-8"?>
<!-- Generator: Adobe Illustrator 26.0.2, SVG Export Plug-In . SVG Version: 6.00 Build 0)  -->
<svg version="1.1" id="Layer_1" xmlns="http://www.w3.org/2000/svg" xmlns:xlink="http://www.w3.org/1999/xlink" x="0px" y="0px"
	 viewBox="0 0 300 174.5" style="enable-background:new 0 0 300 174.5;" xml:space="preserve">
<style type="text/css">
	.st0{fill:#FFFFFF;}
	.st1{font-family:'Mulish-Light';}
	.st2{font-size:29.915px;}
</style>
<g>
	<g>
		<g>
			<path class="st0" d="M51.3,81.1c-1.5-1.3-3.4-2-5.8-2c-1.3,0-2.6,0.3-3.9,0.9c-1.3,0.6-2.6,1.6-3.8,3c-1.2,1.4-2.3,3.9-3.3,7.4
				c-1,3.6-1.5,6.6-1.5,9.2c0,2.5,0.6,4.3,1.7,5.5c1.2,1.2,2.9,1.8,5.1,1.8c2.1,0,4.5-0.9,7.1-2.7l2.7,5.1
				c-3.4,2.4-7.3,3.6-11.6,3.6s-7.7-1.2-10.1-3.5c-2.4-2.4-3.6-5.7-3.6-10c0-3,0.5-6.2,1.6-9.5c1.1-3.3,2.5-6.2,4.4-8.8
				c1.9-2.6,4.3-4.6,7.2-6.1c2.9-1.5,6-2.2,9.2-2.2c1.9,0,3.7,0.3,5.4,0.8c1.6,0.6,2.9,1.3,3.7,2.2L51.3,81.1z"/>
			<path class="st0" d="M77.6,93c0,5.4-1.4,10.1-4.3,14c-2.9,3.9-7,5.9-12.3,5.9c-3.2,0-5.7-0.9-7.5-2.6c-1.8-1.7-2.6-4.2-2.6-7.5
				c0-5.5,1.5-10.1,4.6-13.9c3.1-3.8,7-5.7,11.8-5.7c3.2,0,5.7,0.8,7.6,2.5C76.7,87.5,77.6,89.9,77.6,93z M58.8,103.6
				c0,1.3,0.3,2.3,0.9,3c0.6,0.6,1.5,1,2.6,1c2.2,0,3.9-1.6,5.3-4.8c1.3-3.2,2-6.4,2-9.7c0-1.6-0.3-2.7-0.8-3.3
				c-0.6-0.6-1.4-0.9-2.6-0.9c-2.2,0-4,1.7-5.4,5.2C59.4,97.5,58.8,100.7,58.8,103.6z"/>
			<path class="st0" d="M87.8,83c0.3,0.5,0.5,1.2,0.6,2.1c0.1,0.9,0.2,1.8,0.1,2.5c1.3-1.4,2.7-2.5,4.2-3.2c1.5-0.7,3.3-1.1,5.4-1.1
				c1.8,0,3.2,0.5,4.2,1.5c1,1,1.5,2.4,1.5,4.1c0,1.4-0.1,2.7-0.4,4l-4.1,19.4H92l3.9-18.5c0.1-0.7,0.2-1.2,0.3-1.6
				c0.1-0.4,0.1-0.7,0.1-1c0-1.2-0.6-1.8-1.9-1.8c-1,0-2,0.3-3,1c-1,0.7-2.1,1.8-3.2,3.3l-3.9,18.5h-7.3L81,93.2
				c0.3-1.5,0.5-2.9,0.5-4.1c0-1.3-0.2-2.4-0.5-3.4L87.8,83z"/>
			<path class="st0" d="M127.1,109.1c-3.7,2.6-7.6,3.9-11.5,3.9c-3.4,0-6.1-0.9-8-2.6c-1.9-1.8-2.8-4.3-2.8-7.8
				c0-2.9,0.6-5.7,1.7-8.6c1.2-2.8,2.6-5,4.2-6.6c1.6-1.6,3.3-2.7,4.9-3.3c1.6-0.6,3.4-0.9,5.3-0.9c3,0,5.4,0.6,7.1,1.9
				c1.7,1.3,2.6,3.2,2.6,5.9c0,2.8-1.3,5.2-3.8,7c-2.5,1.9-6,2.8-10.6,2.8c-0.9,0-1.6,0-2.1-0.1c-0.5-0.1-0.9-0.2-1.3-0.3
				c-0.1,0.4-0.1,0.9-0.2,1.5c-0.1,0.6-0.1,0.9-0.1,1c0,1.6,0.4,2.7,1.2,3.4c0.8,0.7,2,1.1,3.6,1.1c1.3,0,2.5-0.2,3.8-0.7
				c1.3-0.5,2.6-1.2,4-2.2L127.1,109.1z M116.1,95.7c1.8,0,3.5-0.3,4.9-1c1.4-0.7,2.1-1.6,2.1-3c0-0.9-0.2-1.7-0.7-2.2
				c-0.5-0.5-1.2-0.8-2.3-0.8c-1.5,0-2.7,0.5-3.7,1.5c-1,1-1.8,2.7-2.3,5.1c0.3,0.1,0.6,0.1,1.1,0.2
				C115.5,95.6,115.8,95.7,116.1,95.7z"/>
			<path class="st0" d="M140.8,83.1c0.6,1.3,1.1,2.7,1.7,4.3s1,3,1.3,4.2c0.7-1.1,1.5-2.2,2.4-3.5c0.9-1.3,1.9-2.7,3.1-4.2h9
				l-11.7,13.7l7.1,14.7h-8.8c-0.5-1.4-1.1-3.2-1.9-5.3c-0.8-2.1-1.3-3.5-1.4-4.2c-0.4,0.7-1.5,2.2-3.2,4.4c-1.7,2.2-3.1,3.9-4,5.1
				h-9.8L138.4,97l-5.3-11.8L140.8,83.1z"/>
			<path class="st0" d="M167.7,83.2l-3.9,18.3c-0.4,1.7-0.6,2.9-0.6,3.8c0,0.6,0.2,1.1,0.5,1.5c0.4,0.4,0.8,0.6,1.2,0.6
				c1,0,2.2-0.4,3.4-1.3c1.2-0.9,2.1-1.9,2.7-2.9l3.9-18.5l7.5-1.5l-4.6,21.7c-0.1,0.7-0.2,1.4-0.2,2.1c0,0.7,0.1,1.4,0.2,2.1
				c0.1,0.6,0.3,1.2,0.6,1.6l-6.4,2.6c-0.4-0.5-0.7-1.1-0.9-1.8c-0.3-0.7-0.4-1.3-0.4-1.9c-1.2,1.1-2.5,1.9-3.8,2.6
				c-1.4,0.6-2.8,1-4.4,1c-2.2,0-3.9-0.5-5.1-1.6c-1.2-1-1.8-2.4-1.8-4.2c0-0.6,0-1.2,0.1-2c0.1-0.8,0.2-1.6,0.4-2.5l3.8-18.2
				L167.7,83.2z"/>
			<path class="st0" d="M192.5,83c0.2,0.5,0.4,1.1,0.5,2c0.1,0.8,0.2,1.7,0.2,2.6c2.8-2.8,5.8-4.2,9.1-4.2c1.5,0,2.7,0.3,3.6,1
				c0.9,0.7,1.4,1.7,1.6,3.2c1.4-1.4,2.9-2.5,4.5-3.2c1.6-0.7,3.1-1.1,4.7-1.1c1.7,0,3.1,0.5,4.2,1.4c1,0.9,1.6,2.4,1.6,4.5
				c0,1.1-0.1,2.3-0.4,3.7l-4.1,19.4h-7.2l4-18.8c0.2-1.1,0.3-1.9,0.3-2.4c0-0.6-0.1-1.1-0.4-1.3c-0.3-0.2-0.7-0.3-1.4-0.3
				c-1,0-2,0.4-3,1.2c-1.1,0.8-2,1.8-2.9,3.1l-3.9,18.5h-7l3.9-18.5c0.3-1.1,0.4-2.1,0.4-2.8c0-0.6-0.1-1-0.4-1.2
				c-0.3-0.2-0.7-0.3-1.4-0.3c-0.9,0-1.9,0.4-2.9,1.1c-1,0.7-2.1,1.8-3.1,3.2l-3.9,18.5h-7.3l4.2-19.4c0.2-1.1,0.3-2.3,0.3-3.5
				c0-1.7-0.1-2.9-0.4-3.7L192.5,83z"/>
		</g>
		<g>
			<g>
				<path class="st0" d="M279.8,117.6c6.7-12,3.4-26.8-7.2-34.9c6.3,6.6,6.6,19.4,0.1,31c-6.5,11.6-17.6,18.1-26.5,16.1
					C258.7,134.6,273.1,129.6,279.8,117.6z"/>
				<path class="st0" d="M239.1,94.9c6.5-11.6,17.6-18.1,26.5-16.1C253.2,74,238.8,79,232.1,91c-6.7,12-3.4,26.8,7.2,34.9
					C233,119.4,232.7,106.5,239.1,94.9z"/>
			</g>
		</g>
		<g>
			<path class="st0" d="M34.2,122.2h-4.6l-0.8,3.6l3.7,0l-0.4,1.8l-3.7,0l-1.3,6l-2.2,0l2.8-13.2h7.1L34.2,122.2z"/>
			<path class="st0" d="M44.2,130.9c-0.1,0.4-0.1,0.7-0.1,1c0,0.4,0.1,0.8,0.3,1.2l-1.8,0.9c-0.4-0.4-0.6-1-0.6-1.7
				c-0.5,0.5-1,0.9-1.5,1.2c-0.5,0.3-1.1,0.4-1.7,0.4c-0.7,0-1.2-0.2-1.6-0.5c-0.4-0.3-0.6-0.8-0.6-1.5c0-0.4,0.1-0.9,0.2-1.5
				l1.3-6.4l2.2-0.4L39,130c-0.1,0.5-0.2,1-0.2,1.3c0,0.6,0.3,0.9,0.8,0.9c0.4,0,0.9-0.2,1.4-0.5c0.5-0.4,0.9-0.8,1.3-1.4l1.3-6.2
				l2.1-0.4L44.2,130.9z"/>
			<path class="st0" d="M57,128.3c-0.4,0.4-0.9,0.7-1.6,0.9c-0.7,0.2-1.5,0.3-2.5,0.3c-0.2,0-0.5,0-0.7,0c-0.3,0-0.4,0-0.4,0
				c0,0.2-0.1,0.4-0.1,0.6c0,0.2,0,0.4,0,0.4c0,0.6,0.2,1,0.5,1.3c0.3,0.3,0.7,0.4,1.3,0.4c0.9,0,1.8-0.4,2.7-1.1l0.7,1.3
				c-0.6,0.5-1.2,0.8-1.8,1c-0.6,0.2-1.3,0.3-2.1,0.3c-1,0-1.9-0.3-2.5-0.9c-0.6-0.6-0.9-1.5-0.9-2.6c0-1,0.2-1.9,0.6-2.9
				c0.4-0.9,1-1.8,1.8-2.6c0.8-0.8,1.8-1.1,3.1-1.1c1,0,1.7,0.2,2.3,0.6c0.5,0.4,0.8,1.1,0.8,1.9C57.9,127.1,57.6,127.7,57,128.3z
				 M54.6,125.3c-0.6,0-1.1,0.2-1.5,0.7c-0.4,0.4-0.8,1.1-1,2l0.8,0.1c0.6,0,1.1,0,1.5-0.1c0.4-0.1,0.7-0.3,1-0.5
				c0.2-0.2,0.4-0.6,0.4-0.9c0-0.4-0.1-0.6-0.3-0.8C55.3,125.4,55,125.3,54.6,125.3z"/>
			<path class="st0" d="M65.9,122.6l-1.7,7.8c-0.1,0.3-0.1,0.6-0.2,0.9c0,0.3-0.1,0.4-0.1,0.5c0,0.3,0.2,0.5,0.5,0.5
				c0.2,0,0.3,0,0.3,0l0.1,1.3c-0.4,0.2-0.9,0.2-1.4,0.2c-0.5,0-1-0.1-1.3-0.4c-0.3-0.3-0.4-0.6-0.4-1.1c0-0.3,0.1-0.8,0.2-1.4
				l1.7-8c0.2-0.9,0.3-1.5,0.3-2c0-0.3,0-0.6-0.1-0.8l2.2-0.7c0.1,0.3,0.1,0.6,0.1,1C66.2,121.1,66.1,121.8,65.9,122.6z"/>
			<path class="st0" d="M71.7,133.6l-2.1,0l2-9.6l2.2-0.3L71.7,133.6z M73.3,122.5c-0.4,0-0.7-0.1-1-0.4s-0.4-0.6-0.4-1
				c0-0.4,0.1-0.7,0.4-1c0.3-0.3,0.6-0.4,1-0.4c0.4,0,0.7,0.1,1,0.4c0.3,0.3,0.4,0.6,0.4,1c0,0.4-0.1,0.7-0.4,1
				C74,122.4,73.7,122.5,73.3,122.5z"/>
			<path class="st0" d="M86.2,126.7l-1.5,6.9l-2.1,0l1.3-6.4c0.1-0.4,0.1-0.7,0.1-0.9c0-0.5-0.3-0.8-0.8-0.8c-0.4,0-0.8,0.1-1.2,0.4
				c-0.5,0.3-0.9,0.7-1.4,1.4l-1.4,6.3l-2.1,0l1.5-6.7c0.1-0.6,0.2-1.1,0.2-1.5c0-0.3-0.1-0.6-0.2-1l2-0.8c0.2,0.3,0.2,0.8,0.2,1.2
				c0,0.2,0,0.4-0.1,0.6c0.9-1.1,2.1-1.7,3.5-1.7c0.6,0,1.1,0.2,1.4,0.5c0.3,0.3,0.5,0.8,0.5,1.4c0,0.2,0,0.3,0,0.5
				C86.2,126.3,86.2,126.5,86.2,126.7z"/>
			<path class="st0" d="M99.4,126l-1,4.7c-0.1,0.4-0.2,1-0.3,1.8c-0.1,0.7-0.3,1.5-0.5,2.3c-0.2,0.8-0.7,1.5-1.6,2
				c-0.9,0.6-2,0.8-3.3,0.8c-1.2,0-2.4-0.3-3.4-0.9l0.7-1.5c0.8,0.5,1.7,0.7,2.8,0.7c0.8,0,1.4-0.2,1.9-0.5c0.4-0.3,0.7-0.8,0.9-1.5
				l0.3-1.4c-0.7,0.8-1.6,1.2-2.7,1.2c-1.9,0-2.9-1.1-2.9-3.3c0-1,0.2-2,0.6-3c0.4-1,0.9-1.8,1.5-2.3c0.6-0.5,1.2-0.9,1.8-1.2
				c0.6-0.2,1.3-0.4,2-0.4c0.8,0,1.4,0.1,2,0.2c0.5,0.1,1.1,0.3,1.6,0.6c-0.1,0.2-0.1,0.5-0.2,0.9C99.5,125.7,99.5,126,99.4,126z
				 M96.1,125.4c-0.3,0-0.7,0.1-1.1,0.2c-0.4,0.2-0.7,0.4-1,0.8c-0.3,0.4-0.6,1-0.9,1.8c-0.3,0.8-0.4,1.6-0.4,2.2
				c0,1.1,0.4,1.7,1.3,1.7c0.4,0,0.9-0.2,1.3-0.5c0.4-0.3,0.8-0.7,1.1-1.3l1-4.8C97.1,125.5,96.7,125.4,96.1,125.4z"/>
			<path class="st0" d="M116.3,120.3l-2.8,13.3h-2.8l2.8-13.3H116.3z"/>
			<path class="st0" d="M122.9,123.5c0.1,0.2,0.2,0.4,0.2,0.7c0.1,0.3,0.1,0.6,0,0.9c0.4-0.5,0.9-0.9,1.5-1.1
				c0.5-0.2,1.1-0.4,1.8-0.4c0.6,0,1.1,0.2,1.5,0.5c0.3,0.3,0.5,0.8,0.5,1.4c0,0.5-0.1,0.9-0.2,1.4l-1.4,6.7h-2.5l1.3-6.4
				c0.1-0.2,0.1-0.4,0.1-0.5c0-0.1,0-0.2,0-0.3c0-0.4-0.2-0.6-0.7-0.6c-0.3,0-0.7,0.1-1,0.3c-0.4,0.2-0.7,0.6-1.1,1.1l-1.4,6.4h-2.5
				l1.4-6.6c0.1-0.5,0.2-1,0.2-1.4c0-0.4-0.1-0.8-0.2-1.2L122.9,123.5z"/>
			<path class="st0" d="M135.9,123.5c0.1,0.2,0.2,0.4,0.2,0.7c0.1,0.3,0.1,0.6,0,0.9c0.4-0.5,0.9-0.9,1.5-1.1
				c0.5-0.2,1.1-0.4,1.8-0.4c0.6,0,1.1,0.2,1.5,0.5c0.3,0.3,0.5,0.8,0.5,1.4c0,0.5-0.1,0.9-0.2,1.4l-1.4,6.7h-2.5l1.3-6.4
				c0.1-0.2,0.1-0.4,0.1-0.5c0-0.1,0-0.2,0-0.3c0-0.4-0.2-0.6-0.7-0.6c-0.3,0-0.7,0.1-1,0.3c-0.4,0.2-0.7,0.6-1.1,1.1l-1.4,6.4h-2.5
				l1.4-6.6c0.1-0.5,0.2-1,0.2-1.4c0-0.4-0.1-0.8-0.2-1.2L135.9,123.5z"/>
			<path class="st0" d="M154.6,126.9c0,1.9-0.5,3.5-1.5,4.8c-1,1.3-2.4,2-4.2,2c-1.1,0-2-0.3-2.6-0.9c-0.6-0.6-0.9-1.5-0.9-2.6
				c0-1.9,0.5-3.5,1.6-4.8c1.1-1.3,2.4-2,4.1-2c1.1,0,2,0.3,2.6,0.9C154.2,125,154.6,125.9,154.6,126.9z M148.1,130.6
				c0,0.5,0.1,0.8,0.3,1s0.5,0.3,0.9,0.3c0.8,0,1.4-0.6,1.8-1.7c0.5-1.1,0.7-2.2,0.7-3.3c0-0.5-0.1-0.9-0.3-1.1
				c-0.2-0.2-0.5-0.3-0.9-0.3c-0.8,0-1.4,0.6-1.8,1.8C148.3,128.5,148.1,129.6,148.1,130.6z"/>
			<path class="st0" d="M161.1,123.6l0.5,4.4c0,0.3,0.1,0.7,0.1,1.2c0,0.5,0,0.9,0,1.2c0.1-0.4,0.3-0.8,0.5-1.1
				c0.2-0.4,0.4-0.8,0.7-1.3l2.2-4.1h2.7l-5.7,9.8H160l-1.5-9.6L161.1,123.6z"/>
			<path class="st0" d="M178.2,126.7l-0.8,3.7c-0.1,0.3-0.1,0.5-0.1,0.8c0,0.4,0.2,0.8,0.5,1.2l-2.1,1.5c-0.2-0.1-0.4-0.3-0.5-0.5
				c-0.1-0.2-0.2-0.4-0.3-0.7c-0.4,0.4-0.7,0.7-1.2,0.9c-0.4,0.2-0.9,0.3-1.4,0.3c-1.8,0-2.7-1-2.7-3.1c0-1.1,0.2-2.2,0.6-3.2
				c0.4-1,1-1.9,1.8-2.7c0.8-0.8,2-1.2,3.6-1.2c0.6,0,1.2,0.1,1.8,0.2c0.6,0.1,1.1,0.3,1.5,0.5c-0.1,0.2-0.2,0.6-0.3,1.2
				C178.3,126,178.2,126.4,178.2,126.7z M175.2,125.6c-0.4,0-0.7,0-0.9,0.1c-0.2,0.1-0.5,0.4-0.9,0.8c-0.3,0.4-0.6,1-0.8,1.9
				c-0.2,0.8-0.3,1.6-0.3,2.3c0,0.8,0.3,1.3,0.8,1.3c0.4,0,0.8-0.2,1.1-0.5c0.4-0.3,0.6-0.7,0.8-1.1l1-4.7c0,0-0.1-0.1-0.2-0.1
				S175.4,125.6,175.2,125.6z"/>
			<path class="st0" d="M187.9,125.5h-1.7l-1,4.9c0,0.1-0.1,0.3-0.1,0.4s0,0.3,0,0.4c0,0.5,0.3,0.7,0.9,0.7c0.3,0,0.6-0.1,1-0.2v1.5
				c-0.3,0.1-0.7,0.2-1.1,0.3c-0.4,0.1-0.8,0.1-1.1,0.1c-0.7,0-1.3-0.2-1.7-0.5c-0.4-0.3-0.6-0.7-0.6-1.2c0-0.4,0-0.8,0.1-1.3
				l1.1-5.3h-1l0.4-1.8h1c0.1-0.3,0.1-0.7,0.2-1.1c0.1-0.4,0.2-0.8,0.4-1.2l2.7-0.7c-0.3,1-0.6,2-0.8,3h2.3L187.9,125.5z"/>
			<path class="st0" d="M195.9,123.6l-2.1,10h-2.6l2-9.6L195.9,123.6z M196.7,121.1c0,0.4-0.2,0.8-0.5,1.1c-0.3,0.3-0.7,0.5-1.1,0.5
				c-0.4,0-0.8-0.2-1.1-0.5c-0.3-0.3-0.5-0.7-0.5-1.1c0-0.4,0.2-0.8,0.5-1.1c0.3-0.3,0.7-0.5,1.1-0.5c0.4,0,0.8,0.2,1.1,0.5
				C196.6,120.3,196.7,120.7,196.7,121.1z"/>
			<path class="st0" d="M208.5,126.9c0,1.9-0.5,3.5-1.5,4.8c-1,1.3-2.4,2-4.2,2c-1.1,0-2-0.3-2.6-0.9c-0.6-0.6-0.9-1.5-0.9-2.6
				c0-1.9,0.5-3.5,1.6-4.8s2.4-2,4.1-2c1.1,0,2,0.3,2.6,0.9C208.2,125,208.5,125.9,208.5,126.9z M202,130.6c0,0.5,0.1,0.8,0.3,1
				c0.2,0.2,0.5,0.3,0.9,0.3c0.8,0,1.4-0.6,1.8-1.7c0.5-1.1,0.7-2.2,0.7-3.3c0-0.5-0.1-0.9-0.3-1.1c-0.2-0.2-0.5-0.3-0.9-0.3
				c-0.8,0-1.4,0.6-1.8,1.8C202.2,128.5,202,129.6,202,130.6z"/>
			<path class="st0" d="M215.7,123.5c0.1,0.2,0.2,0.4,0.2,0.7c0.1,0.3,0.1,0.6,0,0.9c0.4-0.5,0.9-0.9,1.5-1.1
				c0.5-0.2,1.1-0.4,1.8-0.4c0.6,0,1.1,0.2,1.5,0.5c0.3,0.3,0.5,0.8,0.5,1.4c0,0.5-0.1,0.9-0.2,1.4l-1.4,6.7h-2.5l1.3-6.4
				c0.1-0.2,0.1-0.4,0.1-0.5c0-0.1,0-0.2,0-0.3c0-0.4-0.2-0.6-0.7-0.6c-0.3,0-0.7,0.1-1,0.3c-0.4,0.2-0.7,0.6-1.1,1.1l-1.4,6.4h-2.5
				l1.4-6.6c0.1-0.5,0.2-1,0.2-1.4c0-0.4-0.1-0.8-0.2-1.2L215.7,123.5z"/>
		</g>
	</g>
</g>
<text transform="matrix(1 0 0 1 29.8859 59.6141)" class="st0 st1 st2">Member of:</text>
</svg>
