<?xml version="1.0" encoding="utf-8"?>
<!-- Generator: Adobe Illustrator 25.4.1, SVG Export Plug-In . SVG Version: 6.00 Build 0)  -->
<svg version="1.1" id="Layer_1" xmlns="http://www.w3.org/2000/svg" xmlns:xlink="http://www.w3.org/1999/xlink" x="0px" y="0px"
	 viewBox="0 0 38.7 38.7" style="enable-background:new 0 0 38.7 38.7;" xml:space="preserve">
<style type="text/css">
	.st0{fill:#FFFFFF;}
</style>
<g>
	<path class="st0" d="M30.8,11.8c0-1.7-1.4-3.1-3.1-3.1c0,0,0,0,0,0H11.9c-1.7,0-3.1,1.4-3.1,3.1c0,0,0,0,0,0l0,16.2
		c0,1.7,1.4,3.1,3.1,3.1c0,0,0,0,0,0h15.8c1.7,0,3.1-1.4,3.1-3.1L30.8,11.8z M19.8,28.3c-4.7,0-8.4-3.8-8.4-8.4s3.8-8.4,8.4-8.4
		c4.7,0,8.4,3.8,8.4,8.4C28.2,24.5,24.4,28.3,19.8,28.3L19.8,28.3z"/>
	<polygon class="st0" points="22.6,19 17,19 17.5,17.8 12.5,19.9 17.5,22 17,20.8 22.6,20.8 22.1,22 27,19.9 22.1,17.8 	"/>
</g>
</svg>
