<?xml version="1.0" encoding="utf-8"?>
<!-- Generator: Adobe Illustrator 25.4.1, SVG Export Plug-In . SVG Version: 6.00 Build 0)  -->
<svg version="1.1" id="Layer_1" xmlns="http://www.w3.org/2000/svg" xmlns:xlink="http://www.w3.org/1999/xlink" x="0px" y="0px"
	 viewBox="0 0 171.1 65.9" style="enable-background:new 0 0 171.1 65.9;" xml:space="preserve">
<style type="text/css">
	.st0{fill:#DD097D;}
	.st1{fill:#FFFFFF;}
</style>
<g>
	<path class="st0" d="M97.2,57.8l1.8-8.6h2.1l-0.2,1c0.3-0.4,0.7-0.7,1.1-0.9s0.9-0.3,1.4-0.3c1.2,0,1.8,0.5,1.8,1.6
		c0,0.3,0,0.5-0.1,0.8l-1.4,6.4h-2.2l1.3-5.9l0.1-0.5c0-0.5-0.2-0.7-0.8-0.7c-0.8,0-1.2,0.5-1.5,1.4l-1.2,5.7L97.2,57.8z"/>
	<path class="st0" d="M112.3,53.8h-4.4l-0.2,0.7l-0.1,0.5v0.4c0,0.3,0,0.6,0.2,0.8c0.1,0.2,0.4,0.3,0.6,0.3c0.3,0,0.7-0.1,0.9-0.4
		c0.3-0.4,0.5-0.8,0.6-1.2h2c-0.2,0.9-0.6,1.7-1.3,2.3c-0.7,0.6-1.6,0.8-2.5,0.8c-0.8,0.1-1.6-0.2-2.1-0.7c-0.4-0.5-0.6-1.1-0.5-1.7
		c0-0.3,0-0.7,0.1-1l0.2-1.1c0.2-1.1,0.6-2.2,1.2-3.1c0.8-0.9,1.9-1.4,3.1-1.3c0.7-0.1,1.4,0.2,1.9,0.6c0.4,0.5,0.6,1.1,0.6,1.8
		s-0.1,1.3-0.3,2L112.3,53.8z M108.2,52.5h2.3c0-0.2,0.1-0.4,0.1-0.6c0-0.2,0-0.3,0-0.5c0-0.6-0.3-0.9-0.8-0.9c-0.4,0-0.8,0.2-1,0.5
		c-0.2,0.4-0.4,0.8-0.5,1.2L108.2,52.5z"/>
	<path class="st0" d="M114.9,49.2l0.5-2.5h2.2l-0.5,2.5h1.3l-0.3,1.5h-1.3l-1,4.7l-0.1,0.5c0,0.3,0.2,0.5,0.6,0.5h0.5l-0.3,1.6
		l-0.8,0.1H115c-0.5,0-0.9-0.1-1.4-0.2c-0.3-0.2-0.4-0.6-0.4-0.9c0-0.4,0.1-0.8,0.2-1.1l1-4.9h-1.1l0.3-1.5L114.9,49.2z"/>
	<polygon class="st0" points="127.5,49.2 125.1,55.3 125.2,49.2 122.8,49.2 120.4,55.3 120.7,49.2 118.5,49.2 118.6,57.8 
		121.1,57.8 123.5,51.7 123.4,57.8 125.9,57.8 129.6,49.2 	"/>
	<path class="st0" d="M129.2,53.5c0.2-1.2,0.7-2.4,1.4-3.4c0.8-0.8,1.8-1.2,2.9-1.2c0.7-0.1,1.5,0.1,2.1,0.6
		c0.5,0.5,0.7,1.2,0.6,1.9c0,0.7-0.1,1.4-0.3,2.1c-0.2,1.2-0.7,2.4-1.5,3.4c-0.7,0.8-1.8,1.2-2.9,1.2c-0.7,0.1-1.5-0.1-2.1-0.6
		c-0.5-0.5-0.7-1.2-0.6-1.9C128.9,54.9,129,54.2,129.2,53.5 M131.4,53.5l-0.2,0.8c-0.1,0.2-0.1,0.5-0.1,0.6c0,0.2,0,0.3,0,0.5
		c0,0.3,0,0.6,0.2,0.8s0.4,0.3,0.6,0.3c0.5,0,0.9-0.3,1.1-0.7c0.4-0.7,0.6-1.5,0.8-2.3c0.2-0.6,0.2-1.3,0.3-1.9
		c0-0.7-0.3-1.1-0.8-1.1s-1,0.4-1.2,0.8C131.8,52,131.6,52.8,131.4,53.5"/>
	<path class="st0" d="M136.3,57.8l1.8-8.6h2.1l-0.2,1.2c0.3-0.4,0.7-0.7,1.1-1c0.4-0.2,0.8-0.4,1.2-0.4h0.4l-0.4,2.1h-0.7
		c-0.4,0-0.8,0.1-1.2,0.3c-0.4,0.3-0.7,0.7-0.8,1.2l-1.1,5.2L136.3,57.8z"/>
	<polygon class="st0" points="144.1,46.4 141.7,57.8 143.9,57.8 144.4,55.3 145.4,54.3 146.5,57.8 149,57.8 147.2,52.6 150.4,49.2 
		148,49.2 145.1,52.4 146.3,46.4 	"/>
	<path class="st0" d="M149.8,55h2v0.3l-0.1,0.4c0,0.6,0.3,0.9,0.9,0.9c0.3,0,0.6-0.1,0.9-0.2c0.2-0.2,0.4-0.5,0.5-0.8v-0.2
		c0-0.2-0.1-0.3-0.2-0.5c-0.1-0.1-0.3-0.2-0.4-0.3L152,54c-0.8-0.2-1.4-0.9-1.4-1.8v-0.3l0.1-0.2c0.1-0.7,0.5-1.4,1.1-1.8
		c0.8-0.5,1.7-0.8,2.6-0.8c1.7,0,2.5,0.6,2.5,1.8c0,0.2,0,0.4-0.1,0.7l-0.1,0.3h-2l0.1-0.6c0-0.5-0.3-0.7-0.8-0.7
		c-0.3,0-0.6,0.1-0.8,0.2c-0.2,0.2-0.4,0.4-0.4,0.7v0.2c0,0.3,0.3,0.6,0.8,0.8l1.2,0.5c0.8,0.2,1.4,0.9,1.4,1.7c0,0.1,0,0.2,0,0.3
		s0,0.3-0.1,0.4c-0.1,0.8-0.6,1.5-1.3,2c-0.3,0.2-0.7,0.4-1.1,0.5c-0.4,0.1-0.9,0.2-1.4,0.2c-0.7,0.1-1.4-0.1-2.1-0.5
		c-0.4-0.3-0.7-0.9-0.6-1.4v-0.3l0.1-0.5L149.8,55z"/>
	<path class="st1" d="M161.4,15.1c0.2-0.1,0.4-0.3,0.4-0.5c0-0.4-0.3-0.6-0.7-0.6l0,0h-0.8v2h0.4v-0.8h0.2l0.4,0.8h0.5L161.4,15.1z
		 M161,14.8h-0.3v-0.5h0.3c0.1,0,0.3,0.1,0.3,0.3l0,0C161.3,14.7,161.2,14.8,161,14.8L161,14.8"/>
	<path class="st1" d="M161,13c-1.1,0-1.9,0.9-1.9,1.9c0,1.1,0.9,1.9,1.9,1.9c1.1,0,1.9-0.9,1.9-1.9S162.1,13,161,13L161,13
		 M161,16.4c-0.8,0-1.5-0.6-1.5-1.4c0-0.8,0.6-1.5,1.4-1.5c0.8,0,1.5,0.6,1.5,1.4l0,0C162.5,15.7,161.9,16.4,161,16.4
		C161.1,16.4,161,16.4,161,16.4"/>
	<rect x="10.9" y="15.3" class="st1" width="6.1" height="29.4"/>
	<path class="st1" d="M49.4,18.2c-1-1-2.1-1.7-3.4-2.2c-1.5-0.5-3-0.8-4.6-0.8H21v29.4h6.1V21.4h14.3c1.3-0.1,2.7,0.4,3.7,1.3
		c0.9,0.9,1.4,2.2,1.3,3.5c0.1,1.3-0.4,2.6-1.3,3.5c-1,0.9-2.3,1.4-3.7,1.3H29.5v5.9h11.9c1.6,0,3.1-0.3,4.6-0.8
		c2.6-1,4.7-3.1,5.6-5.7c0.5-1.4,0.7-2.8,0.7-4.3s-0.2-3-0.7-4.4S50.4,19.2,49.4,18.2"/>
	<path class="st1" d="M119.8,19.3c-1.3-1.3-2.9-2.3-4.6-3c-1.9-0.7-3.8-1.1-5.8-1.1h-6.9c-1.9,0-3.9,0.3-5.7,1
		c-1.7,0.7-3.2,1.7-4.6,2.9c-1.3,1.3-2.3,2.9-3,4.6c-0.7,1.9-1.1,3.9-1.1,5.9s0.3,4,1.1,5.9c1.3,3.6,4.1,6.4,7.5,7.9
		c1.8,0.8,3.7,1.2,5.7,1.2h6.9c2,0,4-0.4,5.8-1.2c1.7-0.7,3.3-1.8,4.6-3.2c1.3-1.4,2.3-3,3-4.8c0.7-1.9,1.1-3.9,1.1-5.9
		s-0.3-4-1.1-5.8C122,22.1,121,20.5,119.8,19.3 M117.6,29.9c0,1.2-0.2,2.4-0.6,3.5c-0.7,2.1-2.3,3.8-4.3,4.6
		c-1.1,0.4-2.2,0.7-3.3,0.7h-6.9c-1.1,0-2.2-0.2-3.3-0.7c-1-0.4-1.9-1-2.6-1.8s-1.3-1.7-1.7-2.8c-0.4-1.1-0.6-2.3-0.6-3.5
		s0.2-2.4,0.6-3.5c0.4-1,1-1.9,1.7-2.7c0.7-0.8,1.6-1.4,2.6-1.8s2.2-0.6,3.3-0.6h6.9c1.1,0,2.3,0.2,3.3,0.6s1.9,1,2.6,1.8
		c0.8,0.8,1.3,1.7,1.7,2.7C117.5,27.6,117.7,28.7,117.6,29.9"/>
	<path class="st1" d="M151.1,15v19.9l-19-18.8c-0.3-0.4-0.8-0.7-1.2-0.9s-0.8-0.3-1.3-0.3c-0.9,0-1.7,0.3-2.3,1
		c-0.6,0.7-0.9,1.6-0.8,2.5v26.2h5.8V24.8l18.9,19c0.7,0.7,1.7,1.2,2.7,1.2c0.8,0,1.7-0.4,2.2-1c0.6-0.7,0.9-1.6,0.8-2.6V15H151.1z"
		/>
	<polygon class="st1" points="86.5,15.2 78.4,15.2 70.5,24.5 62.5,15.2 54.1,15.2 66.2,29.2 53.2,44.3 61.4,44.3 70.1,34 79,44.3 
		87.5,44.3 74.4,29.2 	"/>
</g>
</svg>
