<?xml version="1.0" encoding="utf-8"?>
<!-- Generator: Adobe Illustrator 26.0.2, SVG Export Plug-In . SVG Version: 6.00 Build 0)  -->
<svg version="1.1" id="Layer_1" xmlns="http://www.w3.org/2000/svg" xmlns:xlink="http://www.w3.org/1999/xlink" x="0px" y="0px"
	 viewBox="0 0 50 50" style="enable-background:new 0 0 50 50;" xml:space="preserve">
<style type="text/css">
	.st0{fill:#FFFFFF;}
</style>
<g>
	<path class="st0" d="M43.8,2.9H6.2c-1.8,0-3.3,1.5-3.3,3.3v35.2c0,3.2,2.6,5.7,5.7,5.7h32.7c3.2,0,5.7-2.6,5.7-5.7V6.2
		C47.1,4.4,45.6,2.9,43.8,2.9z M36.1,35.9c-2.8,2.8-6.6,4.5-10.9,4.5c-1,0-2-0.1-2.9-0.3c-0.1,0-0.2,0-0.3,0
		C14.9,38.7,9.6,32.5,9.6,25c0-4.3,1.7-8.1,4.5-10.9c2.8-2.8,6.6-4.5,10.9-4.5c1,0,2,0.1,2.9,0.3c0.1,0,0.2,0,0.3,0
		c3.1,0.6,5.8,2.1,7.9,4.2c2.8,2.8,4.5,6.6,4.5,10.9S38.9,33.1,36.1,35.9z"/>
	<polygon class="st0" points="37.8,25 28.3,21.1 29.8,23.8 20.3,23.8 21.9,21.1 12.4,25 21.9,28.9 20.3,26.2 29.8,26.2 28.3,28.9 	
		"/>
</g>
</svg>
